<svg width="128" height="128" viewBox="0 0 128 128" fill="none" xmlns="http://www.w3.org/2000/svg">
  <defs>
    <linearGradient id="bgGrad" x1="0%" y1="0%" x2="100%" y2="100%">
      <stop offset="0%" style="stop-color:#6739B7;stop-opacity:1" />
      <stop offset="100%" style="stop-color:#8B5CF6;stop-opacity:1" />
    </linearGradient>
    <linearGradient id="yellowGrad" x1="0%" y1="0%" x2="100%" y2="100%">
      <stop offset="0%" style="stop-color:#FFD700;stop-opacity:1" />
      <stop offset="100%" style="stop-color:#FFC700;stop-opacity:1" />
    </linearGradient>
  </defs>
  
  <!-- Background with gradient -->
  <rect width="128" height="128" rx="28" fill="url(#bgGrad)"/>
  
  <!-- Left side - JSON -->
  <g transform="translate(16, 32) scale(1.8)">
    <path d="M4 4 C2 4 0 6 0 8 L0 12 C0 14 -2 14 -2 14 C-2 14 0 14 0 16 L0 20 C0 22 2 24 4 24" 
          stroke="url(#yellowGrad)" stroke-width="3" fill="none" stroke-linecap="round"/>
    <path d="M12 4 C14 4 16 6 16 8 L16 12 C16 14 18 14 18 14 C18 14 16 14 16 16 L16 20 C16 22 14 24 12 24" 
          stroke="url(#yellowGrad)" stroke-width="3" fill="none" stroke-linecap="round"/>
  </g>
  
  <!-- Center arrow -->
  <g transform="translate(64, 64) scale(1.8)">
    <circle cx="0" cy="0" r="10" fill="rgba(255,215,0,0.2)"/>
    <path d="M-6 0 L6 0 M3 -4 L7 0 L3 4" stroke="url(#yellowGrad)" stroke-width="2.5" 
          stroke-linecap="round" stroke-linejoin="round"/>
  </g>
  
  <!-- Right side - Toon emoji -->
  <g transform="translate(96, 64) scale(1.8)">
    <circle cx="0" cy="0" r="10" fill="url(#yellowGrad)"/>
    <circle cx="-3" cy="-2" r="2" fill="#1a1a1a"/>
    <circle cx="3" cy="-2" r="2" fill="#1a1a1a"/>
    <circle cx="-3" cy="-2" r="0.8" fill="#fff"/>
    <circle cx="3" cy="-2" r="0.8" fill="#fff"/>
    <path d="M-4 2 Q0 5 4 2" stroke="#1a1a1a" stroke-width="2" fill="none" stroke-linecap="round"/>
    <path d="M-6 -4 Q-4 -6 -2 -5" stroke="#1a1a1a" stroke-width="1.5" fill="none" stroke-linecap="round"/>
    <path d="M6 -4 Q4 -6 2 -5" stroke="#1a1a1a" stroke-width="1.5" fill="none" stroke-linecap="round"/>
  </g>
</svg>
